<?xml version="1.0" encoding="utf-8"?>
<!-- Generator: Adobe Illustrator 24.1.0, SVG Export Plug-In . SVG Version: 6.00 Build 0)  -->
<svg version="1.1" id="Capa_1" xmlns="http://www.w3.org/2000/svg" xmlns:xlink="http://www.w3.org/1999/xlink" x="0px" y="0px"
	 viewBox="0 0 122 23" style="enable-background:new 0 0 122 23;" xml:space="preserve">
<style type="text/css">
	.st0{fill:#314B56;}
	.st1{fill:#666666;}
</style>
<g>
	<g>
		<path class="st0" d="M5.51,2.77c0.78,0,1.58,0,2.38,0.01c0.8,0.01,1.59,0.02,2.38,0.04c0.78,0.02,1.53,0.06,2.25,0.12l-0.12,1.67
			H6.04c-0.57,0-0.99,0.13-1.25,0.38C4.53,5.24,4.4,5.65,4.4,6.22v13.47H2.25V5.81c0-0.96,0.29-1.71,0.88-2.24
			C3.72,3.04,4.51,2.77,5.51,2.77z M2.67,10.14h8.79v1.74H2.67V10.14z"/>
		<path class="st0" d="M20.17,7.47c1.8,0,3.1,0.33,3.91,0.98c0.81,0.65,1.21,1.62,1.21,2.91c0.02,1.06-0.2,1.89-0.66,2.49
			c-0.46,0.6-1.18,0.89-2.18,0.89H15.5v-1.62h6.42c0.54,0,0.89-0.18,1.05-0.55c0.16-0.37,0.25-0.77,0.25-1.21
			c-0.02-0.77-0.25-1.31-0.69-1.64c-0.44-0.33-1.19-0.49-2.25-0.49c-0.87,0-1.55,0.13-2.04,0.38c-0.5,0.25-0.85,0.69-1.05,1.32
			c-0.2,0.63-0.31,1.51-0.31,2.63c0,1.27,0.13,2.25,0.38,2.91c0.25,0.67,0.66,1.13,1.21,1.37c0.56,0.25,1.29,0.37,2.2,0.37
			c0.64,0,1.33-0.03,2.09-0.09c0.76-0.06,1.44-0.13,2.04-0.21l0.22,1.4c-0.38,0.15-0.84,0.27-1.38,0.37
			c-0.55,0.1-1.11,0.17-1.69,0.22c-0.58,0.05-1.1,0.07-1.56,0.07c-1.37,0-2.47-0.21-3.31-0.62c-0.83-0.42-1.44-1.08-1.82-2.01
			c-0.38-0.92-0.58-2.14-0.58-3.66c0-1.57,0.19-2.8,0.58-3.71c0.38-0.91,0.98-1.55,1.79-1.93C17.86,7.67,18.9,7.47,20.17,7.47z"/>
		<path class="st0" d="M30.04,7.77l0.27,2.28l0.2,0.37v9.28h-2.08V7.77H30.04z M35.9,7.47l-0.25,1.96h-0.69
			c-0.7,0-1.4,0.14-2.11,0.43c-0.7,0.29-1.56,0.69-2.57,1.21l-0.17-1.3c0.88-0.72,1.77-1.28,2.66-1.69
			c0.89-0.41,1.75-0.61,2.58-0.61H35.9z"/>
		<path class="st0" d="M39.96,7.77l0.15,2.28l0.22,0.37v9.28h-2.08V7.77H39.96z M44.96,7.47c1.01,0,1.79,0.27,2.33,0.82
			c0.54,0.55,0.82,1.37,0.83,2.46v8.94h-2.01v-8.35c0-0.77-0.16-1.31-0.47-1.63s-0.78-0.48-1.4-0.48c-0.41,0-0.8,0.07-1.19,0.2
			c-0.38,0.13-0.81,0.34-1.27,0.64s-1.03,0.69-1.7,1.18l-0.15-1.47c0.87-0.77,1.71-1.34,2.52-1.73C43.28,7.67,44.11,7.47,44.96,7.47
			z M52.77,7.47c1.03,0,1.82,0.28,2.36,0.83c0.55,0.56,0.82,1.37,0.82,2.45v8.94H53.9v-8.35c-0.02-0.73-0.16-1.27-0.44-1.6
			c-0.28-0.33-0.75-0.5-1.42-0.5c-0.42,0-0.83,0.07-1.21,0.21s-0.8,0.35-1.26,0.65s-1.01,0.68-1.67,1.15l-0.12-1.47
			c0.87-0.77,1.71-1.34,2.52-1.73C51.11,7.67,51.94,7.47,52.77,7.47z"/>
		<path class="st0" d="M64.6,7.47c1.8,0,3.1,0.33,3.91,0.98c0.81,0.65,1.21,1.62,1.21,2.91c0.02,1.06-0.2,1.89-0.66,2.49
			c-0.46,0.6-1.18,0.89-2.18,0.89h-6.96v-1.62h6.42c0.54,0,0.89-0.18,1.05-0.55c0.16-0.37,0.25-0.77,0.25-1.21
			c-0.02-0.77-0.25-1.31-0.69-1.64c-0.44-0.33-1.19-0.49-2.25-0.49c-0.87,0-1.55,0.13-2.04,0.38c-0.5,0.25-0.85,0.69-1.05,1.32
			c-0.2,0.63-0.31,1.51-0.31,2.63c0,1.27,0.13,2.25,0.38,2.91c0.25,0.67,0.66,1.13,1.21,1.37c0.56,0.25,1.29,0.37,2.2,0.37
			c0.64,0,1.33-0.03,2.09-0.09c0.76-0.06,1.44-0.13,2.04-0.21l0.22,1.4c-0.38,0.15-0.84,0.27-1.38,0.37
			c-0.55,0.1-1.11,0.17-1.69,0.22c-0.58,0.05-1.1,0.07-1.56,0.07c-1.37,0-2.47-0.21-3.31-0.62c-0.83-0.42-1.44-1.08-1.82-2.01
			c-0.38-0.92-0.58-2.14-0.58-3.66c0-1.57,0.19-2.8,0.58-3.71c0.38-0.91,0.98-1.55,1.79-1.93C62.29,7.67,63.33,7.47,64.6,7.47z"/>
		<path class="st1" d="M79.69,2.8c0.2,0,0.37,0.05,0.51,0.16c0.15,0.11,0.24,0.25,0.29,0.43l5.44,16.31H83.7L79.32,5.83
			c-0.07-0.23-0.13-0.46-0.21-0.7c-0.07-0.24-0.14-0.46-0.21-0.67h-0.69c-0.07,0.21-0.13,0.44-0.2,0.67
			c-0.07,0.24-0.14,0.47-0.22,0.7l-4.38,13.86h-2.23l5.44-16.31c0.05-0.18,0.15-0.32,0.29-0.43c0.15-0.11,0.32-0.16,0.51-0.16H79.69
			z M82.82,12.54v1.86h-8.57v-1.86H82.82z"/>
		<path class="st1" d="M89.8,7.77l0.22,2.47l0.15,0.32v7.64l-0.1,0.29c0.05,0.46,0.08,0.9,0.09,1.32c0.01,0.42,0.01,0.87,0.01,1.35
			v3.45h-2.08V7.77H89.8z M94.92,7.47c1.45,0,2.5,0.54,3.13,1.6c0.64,1.07,0.96,2.64,0.96,4.71c0,1.54-0.16,2.76-0.49,3.66
			c-0.33,0.91-0.82,1.56-1.48,1.95s-1.51,0.59-2.53,0.59c-0.78,0-1.56-0.11-2.31-0.32c-0.76-0.21-1.5-0.54-2.22-0.98l0.12-1.25
			c0.77,0.21,1.45,0.39,2.03,0.53s1.21,0.21,1.86,0.21c0.7,0,1.26-0.12,1.68-0.37c0.42-0.25,0.72-0.69,0.92-1.32
			c0.2-0.64,0.29-1.53,0.29-2.69c0-1.13-0.09-2.02-0.27-2.67c-0.18-0.65-0.46-1.12-0.84-1.41c-0.38-0.29-0.89-0.43-1.53-0.43
			c-0.65,0-1.3,0.16-1.93,0.47c-0.64,0.31-1.38,0.78-2.23,1.42l-0.2-1.4c0.44-0.47,0.94-0.88,1.49-1.22
			c0.55-0.34,1.14-0.61,1.75-0.8C93.73,7.57,94.33,7.47,94.92,7.47z"/>
		<path class="st1" d="M104,7.77l0.22,2.47l0.15,0.32v7.64l-0.1,0.29c0.05,0.46,0.08,0.9,0.09,1.32c0.01,0.42,0.01,0.87,0.01,1.35
			v3.45h-2.08V7.77H104z M109.12,7.47c1.45,0,2.5,0.54,3.13,1.6c0.64,1.07,0.96,2.64,0.96,4.71c0,1.54-0.16,2.76-0.49,3.66
			c-0.33,0.91-0.82,1.56-1.48,1.95s-1.51,0.59-2.53,0.59c-0.78,0-1.56-0.11-2.31-0.32c-0.76-0.21-1.5-0.54-2.22-0.98l0.12-1.25
			c0.77,0.21,1.45,0.39,2.03,0.53s1.21,0.21,1.86,0.21c0.7,0,1.26-0.12,1.68-0.37c0.42-0.25,0.72-0.69,0.92-1.32
			c0.2-0.64,0.29-1.53,0.29-2.69c0-1.13-0.09-2.02-0.27-2.67c-0.18-0.65-0.46-1.12-0.84-1.41c-0.38-0.29-0.89-0.43-1.53-0.43
			c-0.65,0-1.3,0.16-1.93,0.47c-0.64,0.31-1.38,0.78-2.23,1.42l-0.2-1.4c0.44-0.47,0.94-0.88,1.49-1.22
			c0.55-0.34,1.14-0.61,1.75-0.8C107.93,7.57,108.53,7.47,109.12,7.47z"/>
	</g>
</g>
</svg>
