<?xml version="1.0" encoding="utf-8"?>
<!-- Generator: Adobe Illustrator 24.1.0, SVG Export Plug-In . SVG Version: 6.00 Build 0)  -->
<svg version="1.1" id="Capa_1" xmlns="http://www.w3.org/2000/svg" xmlns:xlink="http://www.w3.org/1999/xlink" x="0px" y="0px"
	 viewBox="0 0 122 23" style="enable-background:new 0 0 122 23;" xml:space="preserve">
<style type="text/css">
	.st0{fill:#314B56;}
	.st1{fill:#666666;}
</style>
<g>
	<g>
		<path class="st0" d="M5.51,2.77c0.78,0,1.58,0,2.38,0.01c0.8,0.01,1.59,0.02,2.38,0.04c0.78,0.02,1.53,0.06,2.25,0.12l-0.12,1.67
			H6.04c-0.57,0-0.99,0.13-1.25,0.38C4.53,5.24,4.4,5.65,4.4,6.22v13.47H2.25V5.81c0-0.96,0.29-1.71,0.88-2.24
			C3.72,3.04,4.51,2.77,5.51,2.77z M2.67,10.14h8.79v1.74H2.67V10.14z"/>
		<path class="st0" d="M18.61,2.77c0.82,0,1.64,0,2.46,0c0.82,0,1.64,0.01,2.45,0.04c0.81,0.02,1.59,0.06,2.34,0.11l-0.1,1.69h-6.78
			c-0.51,0-0.88,0.13-1.11,0.38c-0.24,0.25-0.36,0.67-0.36,1.24v10.04c0,0.57,0.12,0.99,0.36,1.25c0.24,0.26,0.61,0.39,1.11,0.39
			h6.78l0.1,1.67c-0.75,0.05-1.53,0.08-2.34,0.1c-0.81,0.02-1.62,0.03-2.45,0.04c-0.82,0.01-1.65,0.01-2.46,0.01
			c-1,0-1.78-0.27-2.36-0.8s-0.88-1.24-0.89-2.14V5.71c0.02-0.91,0.31-1.63,0.89-2.16C16.82,3.03,17.61,2.77,18.61,2.77z M15.79,9.9
			h9.01v1.74h-9.01V9.9z"/>
		<path class="st0" d="M35.04,2.58c1.31,0,2.36,0.14,3.16,0.43c0.8,0.29,1.38,0.78,1.75,1.48c0.37,0.7,0.55,1.69,0.55,2.96
			c0,0.91-0.11,1.68-0.32,2.29c-0.21,0.61-0.54,1.09-0.99,1.42c-0.45,0.33-1.05,0.55-1.8,0.65v0.12c0.28,0.07,0.55,0.2,0.82,0.4
			c0.27,0.2,0.52,0.47,0.75,0.81c0.23,0.33,0.4,0.74,0.51,1.21l1.64,5.34h-2.3l-1.49-5.29c-0.21-0.64-0.5-1.09-0.86-1.36
			c-0.36-0.27-0.82-0.4-1.4-0.4c-1,0-1.86,0-2.6-0.01c-0.73-0.01-1.35-0.02-1.84-0.04s-0.88-0.02-1.18-0.02l0.07-1.79h5.46
			c0.83-0.02,1.49-0.11,1.97-0.29c0.48-0.18,0.83-0.5,1.04-0.97c0.21-0.47,0.32-1.11,0.32-1.95c0-0.83-0.11-1.47-0.32-1.92
			c-0.21-0.45-0.56-0.76-1.04-0.94c-0.48-0.18-1.14-0.27-1.97-0.27c-1.34,0-2.49,0.01-3.47,0.02c-0.97,0.02-1.63,0.02-1.97,0.02
			L29.21,2.8c0.62-0.06,1.2-0.11,1.74-0.15c0.54-0.03,1.13-0.05,1.78-0.06S34.14,2.58,35.04,2.58z M31.34,2.8v16.9h-2.13V2.8H31.34z
			"/>
		<path class="st0" d="M60.31,2.8c0.59,0,0.88,0.3,0.88,0.91l0.71,15.99h-2.16L59.14,4.58h-0.51l-3.77,12.47
			c-0.13,0.49-0.44,0.73-0.93,0.73h-1.94c-0.51,0-0.83-0.25-0.98-0.73L47.24,4.58h-0.49l-0.59,15.11H44L44.67,3.7
			C44.7,3.1,45,2.8,45.57,2.8h2.45c0.46,0,0.76,0.25,0.91,0.73l3.16,10.31c0.13,0.38,0.24,0.75,0.33,1.13
			c0.09,0.38,0.19,0.76,0.31,1.15h0.44c0.11-0.39,0.22-0.78,0.32-1.15c0.1-0.38,0.2-0.77,0.32-1.18l3.16-10.26
			c0.13-0.49,0.44-0.73,0.93-0.73H60.31z"/>
		<path class="st0" d="M68.94,2.77c0.82,0,1.64,0,2.46,0c0.82,0,1.64,0.01,2.45,0.04c0.81,0.02,1.59,0.06,2.34,0.11l-0.1,1.69H69.3
			c-0.51,0-0.88,0.13-1.11,0.38c-0.24,0.25-0.36,0.67-0.36,1.24v10.04c0,0.57,0.12,0.99,0.36,1.25c0.24,0.26,0.61,0.39,1.11,0.39
			h6.78l0.1,1.67c-0.75,0.05-1.53,0.08-2.34,0.1c-0.81,0.02-1.62,0.03-2.45,0.04c-0.82,0.01-1.65,0.01-2.46,0.01
			c-1,0-1.78-0.27-2.36-0.8s-0.88-1.24-0.89-2.14V5.71c0.02-0.91,0.31-1.63,0.89-2.16C67.15,3.03,67.94,2.77,68.94,2.77z M66.12,9.9
			h9.01v1.74h-9.01V9.9z"/>
		<path class="st1" d="M86.15,2.8c0.2,0,0.37,0.05,0.51,0.16c0.15,0.11,0.24,0.25,0.29,0.43l5.44,16.31h-2.23L85.79,5.83
			c-0.07-0.23-0.13-0.46-0.21-0.7c-0.07-0.24-0.14-0.46-0.21-0.67h-0.69c-0.07,0.21-0.13,0.44-0.2,0.67
			c-0.07,0.24-0.14,0.47-0.22,0.7l-4.38,13.86h-2.23l5.44-16.31c0.05-0.18,0.15-0.32,0.29-0.43C83.53,2.85,83.7,2.8,83.9,2.8H86.15z
			 M89.29,12.54v1.86h-8.57v-1.86H89.29z"/>
		<path class="st1" d="M100.58,2.58c1.36,0,2.43,0.16,3.22,0.47s1.36,0.84,1.7,1.6s0.51,1.83,0.51,3.22s-0.17,2.47-0.5,3.23
			c-0.33,0.77-0.88,1.3-1.64,1.6c-0.76,0.3-1.78,0.45-3.05,0.45c-0.69,0-1.34-0.02-1.97-0.05s-1.2-0.08-1.73-0.13
			c-0.52-0.06-0.97-0.12-1.33-0.18c-0.37-0.06-0.62-0.12-0.77-0.17l0.07-1.32c0.87,0,1.76,0,2.69,0s1.85,0,2.77,0
			c0.82-0.02,1.47-0.12,1.95-0.31c0.48-0.19,0.82-0.53,1.03-1.03s0.31-1.2,0.31-2.09c0-0.91-0.1-1.62-0.31-2.11
			s-0.55-0.83-1.03-1.03c-0.48-0.2-1.13-0.29-1.95-0.29c-1.34,0-2.49,0.01-3.46,0.02c-0.97,0.02-1.63,0.04-1.97,0.07L94.77,2.8
			c0.62-0.06,1.2-0.11,1.74-0.15c0.54-0.03,1.13-0.05,1.76-0.06S99.68,2.58,100.58,2.58z M96.93,2.8v16.9h-2.16V2.8H96.93z"/>
		<path class="st1" d="M115.03,2.58c1.36,0,2.43,0.16,3.22,0.47s1.36,0.84,1.7,1.6s0.51,1.83,0.51,3.22s-0.17,2.47-0.5,3.23
			c-0.33,0.77-0.88,1.3-1.64,1.6c-0.76,0.3-1.78,0.45-3.05,0.45c-0.69,0-1.34-0.02-1.97-0.05s-1.2-0.08-1.73-0.13
			c-0.52-0.06-0.97-0.12-1.33-0.18c-0.37-0.06-0.62-0.12-0.77-0.17l0.07-1.32c0.87,0,1.76,0,2.69,0s1.85,0,2.77,0
			c0.82-0.02,1.47-0.12,1.95-0.31c0.48-0.19,0.82-0.53,1.03-1.03s0.31-1.2,0.31-2.09c0-0.91-0.1-1.62-0.31-2.11
			s-0.55-0.83-1.03-1.03c-0.48-0.2-1.13-0.29-1.95-0.29c-1.34,0-2.49,0.01-3.46,0.02c-0.97,0.02-1.63,0.04-1.97,0.07l-0.34-1.74
			c0.62-0.06,1.2-0.11,1.74-0.15c0.54-0.03,1.13-0.05,1.76-0.06S114.13,2.58,115.03,2.58z M111.38,2.8v16.9h-2.16V2.8H111.38z"/>
	</g>
</g>
</svg>
